# Blender v2.82 (sub 7) OBJ File: 'Room.blend'
# www.blender.org
mtllib Room.mtl
o Cube.001_Cube.007
v -3.863045 0.544610 30.585402
v -3.863045 13.723967 30.585402
v -3.863045 0.544610 17.406046
v -3.863045 13.723967 17.406046
v 9.316312 0.544610 30.585402
v 9.316312 13.723967 30.585402
v 9.316312 0.544610 17.406046
v 9.316312 13.723967 17.406046
v 4.616468 6.635895 17.406046
v 4.653067 1.217992 17.406046
v -1.841717 1.252453 17.406046
v -1.832166 6.651885 17.406046
v 5.250149 1.250033 -17.435841
v 5.250149 0.635407 -17.435841
v 5.250149 1.250033 17.435841
v 5.250149 0.635407 17.435841
v -2.450149 1.250033 -17.435841
v -2.450149 0.635407 -17.435841
v -2.450149 1.250033 17.435841
v -2.450149 0.635407 17.435841
v 5.250149 7.263501 -17.435841
v 5.250149 6.648875 -17.435841
v 5.250149 7.263501 17.435841
v 5.250149 6.648875 17.435841
v -2.450149 7.263501 -17.435841
v -2.450149 6.648875 -17.435841
v -2.450149 7.263501 17.435841
v -2.450149 6.648875 17.435841
v 5.251050 1.248311 -17.435841
v 4.636529 1.248311 -17.435841
v 5.251050 1.248311 17.435841
v 4.636529 1.248311 17.435841
v 5.251050 6.664535 -17.435841
v 4.636529 6.664535 -17.435841
v 5.251050 6.664535 17.435841
v 4.636529 6.664535 17.435841
v -1.831184 1.248311 -17.435841
v -2.445705 1.248311 -17.435841
v -1.831184 1.248311 17.435841
v -2.445705 1.248311 17.435841
v -1.831184 6.664535 -17.435841
v -2.445705 6.664535 -17.435841
v -1.831184 6.664535 17.435841
v -2.445705 6.664535 17.435841
v 4.728101 6.670822 -17.396008
v 4.730083 6.668148 -16.781494
v -1.884035 6.661261 -17.374714
v -1.882053 6.658587 -16.760197
v 4.735857 1.254259 -17.419601
v 4.737840 1.251585 -16.805088
v -1.876280 1.244698 -17.398308
v -1.874297 1.242023 -16.783794
vt 0.625000 0.000000
vt 0.375000 0.250000
vt 0.375000 0.000000
vt 0.387773 0.411543
vt 0.375000 0.500000
vt 0.625000 0.500000
vt 0.375000 0.750000
vt 0.625000 0.750000
vt 0.375000 1.000000
vt 0.125000 0.750000
vt 0.125000 0.500000
vt 0.875000 0.500000
vt 0.490546 0.410848
vt 0.490849 0.288524
vt 0.625000 0.250000
vt 0.875000 0.500000
vt 0.625000 0.750000
vt 0.625000 0.500000
vt 0.375000 1.000000
vt 0.375000 0.750000
vt 0.625000 0.000000
vt 0.375000 0.250000
vt 0.375000 0.000000
vt 0.375000 0.500000
vt 0.125000 0.750000
vt 0.125000 0.500000
vt 0.625000 0.250000
vt 0.388427 0.288343
vt 0.625000 1.000000
vt 0.875000 0.750000
vt 0.875000 0.750000
vt 0.625000 1.000000
vt 0.875000 0.500000
vt 0.625000 0.750000
vt 0.625000 0.500000
vt 0.375000 1.000000
vt 0.375000 0.750000
vt 0.625000 0.000000
vt 0.375000 0.250000
vt 0.375000 0.000000
vt 0.375000 0.500000
vt 0.125000 0.750000
vt 0.125000 0.500000
vt 0.625000 0.250000
vt 0.875000 0.750000
vt 0.625000 1.000000
vt 0.875000 0.500000
vt 0.625000 0.750000
vt 0.625000 0.500000
vt 0.375000 1.000000
vt 0.375000 0.750000
vt 0.625000 0.000000
vt 0.375000 0.250000
vt 0.375000 0.000000
vt 0.375000 0.500000
vt 0.125000 0.750000
vt 0.125000 0.500000
vt 0.625000 0.250000
vt 0.875000 0.750000
vt 0.625000 1.000000
vt 0.875000 0.500000
vt 0.625000 0.750000
vt 0.625000 0.500000
vt 0.375000 1.000000
vt 0.375000 0.750000
vt 0.625000 0.000000
vt 0.375000 0.250000
vt 0.375000 0.000000
vt 0.375000 0.500000
vt 0.125000 0.750000
vt 0.125000 0.500000
vt 0.625000 0.250000
vt 0.875000 0.750000
vt 0.625000 1.000000
vt 0.875000 0.500000
vt 0.625000 0.750000
vt 0.625000 0.500000
vt 0.375000 1.000000
vt 0.375000 0.750000
vt 0.625000 0.000000
vt 0.375000 0.250000
vt 0.375000 0.000000
vt 0.125000 0.500000
vt 0.125000 0.750000
vt 0.375000 0.500000
vt 0.625000 0.250000
vt 0.875000 0.750000
vt 0.625000 1.000000
vn -1.0000 0.0000 0.0000
vn 0.0000 0.0000 -1.0000
vn 1.0000 0.0000 0.0000
vn 0.0000 0.0000 1.0000
vn 0.0000 -1.0000 0.0000
vn 0.0000 1.0000 0.0000
vn -0.0032 0.0044 -1.0000
vn -1.0000 -0.0014 0.0032
vn 0.0014 -1.0000 -0.0044
vn 0.0032 -0.0044 1.0000
vn -0.0014 1.0000 0.0044
vn 1.0000 0.0014 -0.0032
usemtl Material
s off
f 2/1/1 3/2/1 1/3/1
f 3/2/2 10/4/2 7/5/2
f 8/6/3 5/7/3 7/5/3
f 6/8/4 1/9/4 5/7/4
f 7/5/5 1/10/5 3/11/5
f 4/12/6 6/8/6 8/6/6
f 9/13/2 12/14/2 4/15/2
f 17/16/6 15/17/6 13/18/6
f 15/17/4 20/19/4 16/20/4
f 19/21/1 18/22/1 20/23/1
f 14/24/5 20/25/5 18/26/5
f 13/18/3 16/20/3 14/24/3
f 17/27/2 14/24/2 18/22/2
f 2/1/1 4/15/1 3/2/1
f 3/2/2 11/28/2 10/4/2
f 8/6/3 6/8/3 5/7/3
f 6/8/4 2/29/4 1/9/4
f 7/5/5 5/7/5 1/10/5
f 4/12/6 2/30/6 6/8/6
f 8/6/2 7/5/2 9/13/2
f 7/5/2 10/4/2 9/13/2
f 11/28/2 3/2/2 12/14/2
f 3/2/2 4/15/2 12/14/2
f 8/6/2 9/13/2 4/15/2
f 17/16/6 19/31/6 15/17/6
f 15/17/4 19/32/4 20/19/4
f 19/21/1 17/27/1 18/22/1
f 14/24/5 16/20/5 20/25/5
f 13/18/3 15/17/3 16/20/3
f 17/27/2 13/18/2 14/24/2
usemtl Material.002
f 25/33/6 23/34/6 21/35/6
f 23/34/4 28/36/4 24/37/4
f 27/38/1 26/39/1 28/40/1
f 22/41/5 28/42/5 26/43/5
f 21/35/3 24/37/3 22/41/3
f 25/44/2 22/41/2 26/39/2
f 25/33/6 27/45/6 23/34/6
f 23/34/4 27/46/4 28/36/4
f 27/38/1 25/44/1 26/39/1
f 22/41/5 24/37/5 28/42/5
f 21/35/3 23/34/3 24/37/3
f 25/44/2 21/35/2 22/41/2
usemtl Material.004
f 33/47/3 31/48/3 29/49/3
f 31/48/4 36/50/4 32/51/4
f 35/52/6 34/53/6 36/54/6
f 30/55/1 36/56/1 34/57/1
f 29/49/5 32/51/5 30/55/5
f 33/58/2 30/55/2 34/53/2
f 33/47/3 35/59/3 31/48/3
f 31/48/4 35/60/4 36/50/4
f 35/52/6 33/58/6 34/53/6
f 30/55/1 32/51/1 36/56/1
f 29/49/5 31/48/5 32/51/5
f 33/58/2 29/49/2 30/55/2
usemtl Material.005
f 41/61/3 39/62/3 37/63/3
f 39/62/4 44/64/4 40/65/4
f 43/66/6 42/67/6 44/68/6
f 38/69/1 44/70/1 42/71/1
f 37/63/5 40/65/5 38/69/5
f 41/72/2 38/69/2 42/67/2
f 41/61/3 43/73/3 39/62/3
f 39/62/4 43/74/4 44/64/4
f 43/66/6 41/72/6 42/67/6
f 38/69/1 40/65/1 44/70/1
f 37/63/5 39/62/5 40/65/5
f 41/72/2 37/63/2 38/69/2
usemtl Material.006
f 49/75/7 47/76/7 45/77/7
f 47/76/8 52/78/8 48/79/8
f 51/80/9 50/81/9 52/82/9
f 50/83/10 48/79/10 52/84/10
f 46/85/11 47/76/11 48/79/11
f 49/86/12 46/85/12 50/81/12
f 49/75/7 51/87/7 47/76/7
f 47/76/8 51/88/8 52/78/8
f 51/80/9 49/86/9 50/81/9
f 50/83/10 46/85/10 48/79/10
f 46/85/11 45/77/11 47/76/11
f 49/86/12 45/77/12 46/85/12
